{
  "source": "C:\\Users\\Peter\\Desktop\\stuff\\MIUN\\quantitative_research\\video_compression\\videos\\BVI-HD\\Fountain_1920x1080_50fps.mp4",
  "output": "C:\\Users\\Peter\\Desktop\\stuff\\MIUN\\quantitative_research\\video_compression\\compressed_videos\\BVI-HD\\av1\\12\\Fountain_1920x1080_50fps_av1.mkv",
  "codec": "av1",
  "ok": "Input #0, mov,mp4,m4a,3gp,3g2,mj2, from 'C:\\Users\\Peter\\Desktop\\stuff\\MIUN\\quantitative_research\\video_compression\\videos\\BVI-HD\\Fountain_1920x1080_50fps.mp4':\n  Metadata:\n    major_brand     : isom\n    minor_version   : 512\n    compatible_brands: isomiso2avc1mp41\n    encoder         : Lavf54.28.101\n  Duration: 00:00:05.00, start: 0.000000, bitrate: 603457 kb/s\n  Stream #0:0[0x1](und): Video: h264 (High 4:4:4 Predictive) (avc1 / 0x31637661), yuv420p(progressive), 1920x1080, 603453 kb/s, 50 fps, 50 tbr, 50 tbn (default)\n    Metadata:\n      handler_name    : VideoHandler\n      vendor_id       : [0][0][0][0]\n[out#0/matroska @ 000002bd02750d40] Codec AVOption b:a (set bitrate (in bits/s)) has not been used for any stream. The most likely reason is either wrong type (e.g. a video option with no video streams) or that it is a private option of some decoder which was not actually used for any stream.\nStream mapping:\n  Stream #0:0 -> #0:0 (h264 (native) -> av1 (libsvtav1))\nPress [q] to stop, [?] for help\nSvt[info]: -------------------------------------------\nSvt[info]: SVT [version]:\tSVT-AV1 Encoder Lib v3.1.0-19-g6ecfe8ec\nSvt[info]: SVT [build]  :\tGCC 15.2.0\t 64 bit\nSvt[info]: LIB Build date: Aug 17 2025 11:37:13\nSvt[info]: -------------------------------------------\nSvt[info]: Level of Parallelism: 5\nSvt[info]: Number of PPCS 93\nSvt[info]: [asm level on system : up to avx2]\nSvt[info]: [asm level selected : up to avx2]\nSvt[info]: -------------------------------------------\nSvt[info]: SVT [config]: main profile\ttier (auto)\tlevel (auto)\nSvt[info]: SVT [config]: width / height / fps numerator / fps denominator \t\t: 1920 / 1080 / 50 / 1\nSvt[info]: SVT [config]: bit-depth / color format \t\t\t\t\t: 8 / YUV420\nSvt[info]: SVT [config]: preset / tune / pred struct \t\t\t\t\t: 4 / PSNR / random access\nSvt[info]: SVT [config]: gop size / mini-gop size / key-frame type \t\t\t: 321 / 16 / key frame\nSvt[info]: SVT [config]: BRC mode / target bitrate (kbps)\t\t\t\t: VBR / 12000 \nSvt[info]: SVT [config]: AQ mode / Variance Boost \t\t\t\t\t: 2 / 0\nSvt[info]: SVT [config]: sharpness / luminance-based QP bias \t\t\t\t: 0 / 0\nSvt[info]: SVT [config]: QP scale compress strength \t\t\t\t\t: 0\nSvt[info]: -------------------------------------------\nOutput #0, matroska, to 'C:\\Users\\Peter\\Desktop\\stuff\\MIUN\\quantitative_research\\video_compression\\compressed_videos\\BVI-HD\\av1\\12\\Fountain_1920x1080_50fps_av1.mkv':\n  Metadata:\n    major_brand     : isom\n    minor_version   : 512\n    compatible_brands: isomiso2avc1mp41\n    encoder         : Lavf62.3.100\n  Stream #0:0(und): Video: av1 (AV01 / 0x31305641), yuv420p(tv, progressive), 1920x1080, q=2-31, 12000 kb/s, 50 fps, 1k tbn (default)\n    Metadata:\n      encoder         : Lavc62.11.100 libsvtav1\n      handler_name    : VideoHandler\n      vendor_id       : [0][0][0][0]\n    Side data:\n      cpb: bitrate max/min/avg: 0/0/12000000 buffer size: 12000000 vbv_delay: N/A\nframe=    0 fps=0.0 q=0.0 size=       0KiB time=N/A bitrate=N/A speed=N/A elapsed=0:00:01.03    \nframe=    0 fps=0.0 q=0.0 size=       0KiB time=N/A bitrate=N/A speed=N/A elapsed=0:00:01.84    \nframe=    0 fps=0.0 q=0.0 size=       0KiB time=N/A bitrate=N/A speed=N/A elapsed=0:00:02.48    \nframe=    0 fps=0.0 q=0.0 size=       0KiB time=N/A bitrate=N/A speed=N/A elapsed=0:00:03.04    \nframe=    0 fps=0.0 q=0.0 size=       0KiB time=N/A bitrate=N/A speed=N/A elapsed=0:00:03.61    \nframe=    0 fps=0.0 q=0.0 size=       0KiB time=N/A bitrate=N/A speed=N/A elapsed=0:00:04.30    \nframe=    0 fps=0.0 q=0.0 size=       0KiB time=N/A bitrate=N/A speed=N/A elapsed=0:00:04.88    \nframe=    1 fps=0.2 q=16.0 size=       1KiB time=00:00:00.00 bitrate=N/A speed=   0x elapsed=0:00:05.46    \nframe=    1 fps=0.2 q=16.0 size=       1KiB time=00:00:00.00 bitrate=N/A speed=   0x elapsed=0:00:06.19    \nframe=    1 fps=0.1 q=16.0 size=       1KiB time=00:00:00.00 bitrate=N/A speed=   0x elapsed=0:00:06.84    \nframe=    4 fps=0.5 q=31.0 size=       1KiB time=00:00:00.04 bitrate= 142.6kbits/s speed=0.00537x elapsed=0:00:07.45    \nframe=    6 fps=0.7 q=31.0 size=       1KiB time=00:00:00.10 bitrate=  57.0kbits/s speed=0.0123x elapsed=0:00:08.11    \nframe=    8 fps=0.9 q=31.0 size=       1KiB time=00:00:00.14 bitrate=  40.7kbits/s speed=0.016x elapsed=0:00:08.74    \nframe=   10 fps=1.1 q=31.0 size=       1KiB time=00:00:00.16 bitrate=  35.6kbits/s speed=0.017x elapsed=0:00:09.41    \nframe=   11 fps=1.1 q=26.0 size=       1KiB time=00:00:00.20 bitrate=  28.5kbits/s speed=0.0199x elapsed=0:00:10.06    \nframe=   15 fps=1.4 q=27.0 size=       1KiB time=00:00:00.26 bitrate=  21.9kbits/s speed=0.0246x elapsed=0:00:10.58    \nframe=   18 fps=1.6 q=31.0 size=       1KiB time=00:00:00.34 bitrate=  16.8kbits/s speed=0.03x elapsed=0:00:11.34    \nframe=   21 fps=1.7 q=25.0 size=       1KiB time=00:00:00.38 bitrate=  15.0kbits/s speed=0.0316x elapsed=0:00:12.03    \nframe=   23 fps=1.8 q=28.0 size=       1KiB time=00:00:00.44 bitrate=  13.0kbits/s speed=0.0348x elapsed=0:00:12.65    \nframe=   25 fps=1.9 q=24.0 size=       1KiB time=00:00:00.48 bitrate=  11.9kbits/s speed=0.0363x elapsed=0:00:13.22    \nframe=   27 fps=2.0 q=29.0 size=       1KiB time=00:00:00.52 bitrate=  11.0kbits/s speed=0.0377x elapsed=0:00:13.80    \nframe=   32 fps=2.2 q=31.0 size=       1KiB time=00:00:00.62 bitrate=   9.2kbits/s speed=0.043x elapsed=0:00:14.41    \nframe=   34 fps=2.3 q=31.0 size=       1KiB time=00:00:00.66 bitrate=   8.6kbits/s speed=0.0441x elapsed=0:00:14.95    \nframe=   36 fps=2.3 q=31.0 size=       1KiB time=00:00:00.70 bitrate=   8.1kbits/s speed=0.0452x elapsed=0:00:15.47    \nframe=   38 fps=2.4 q=31.0 size=       1KiB time=00:00:00.74 bitrate=   7.7kbits/s speed=0.0463x elapsed=0:00:15.97    \nframe=   42 fps=2.5 q=31.0 size=       1KiB time=00:00:00.80 bitrate=   7.1kbits/s speed=0.0485x elapsed=0:00:16.50    \nframe=   44 fps=2.6 q=33.0 size=       1KiB time=00:00:00.86 bitrate=   6.6kbits/s speed=0.0503x elapsed=0:00:17.09    \nframe=   48 fps=2.7 q=33.0 size=       1KiB time=00:00:00.94 bitrate=   6.1kbits/s speed=0.0533x elapsed=0:00:17.62    \nframe=   52 fps=2.9 q=33.0 size=       1KiB time=00:00:01.02 bitrate=   5.6kbits/s speed=0.0562x elapsed=0:00:18.16    \nframe=   55 fps=2.9 q=32.0 size=       1KiB time=00:00:01.08 bitrate=   5.3kbits/s speed=0.0577x elapsed=0:00:18.71    \nframe=   58 fps=3.0 q=35.0 size=       1KiB time=00:00:01.14 bitrate=   5.0kbits/s speed=0.0591x elapsed=0:00:19.28    \nframe=   61 fps=3.1 q=28.0 size=       1KiB time=00:00:01.20 bitrate=   4.8kbits/s speed=0.0605x elapsed=0:00:19.84    \nframe=   66 fps=3.2 q=35.0 size=       1KiB time=00:00:01.30 bitrate=   4.4kbits/s speed=0.0636x elapsed=0:00:20.43    \nframe=   69 fps=3.3 q=31.0 size=       1KiB time=00:00:01.36 bitrate=   4.2kbits/s speed=0.0646x elapsed=0:00:21.06    \nframe=   72 fps=3.3 q=35.0 size=       1KiB time=00:00:01.42 bitrate=   4.0kbits/s speed=0.0655x elapsed=0:00:21.67    \nframe=   76 fps=3.4 q=35.0 size=       1KiB time=00:00:01.50 bitrate=   3.8kbits/s speed=0.0676x elapsed=0:00:22.18    \nframe=   82 fps=3.6 q=35.0 size=       1KiB time=00:00:01.62 bitrate=   3.5kbits/s speed=0.0713x elapsed=0:00:22.71    \nframe=   86 fps=3.7 q=35.0 size=       1KiB time=00:00:01.70 bitrate=   3.4kbits/s speed=0.0731x elapsed=0:00:23.26    \nframe=   90 fps=3.8 q=34.0 size=       1KiB time=00:00:01.78 bitrate=   3.2kbits/s speed=0.0747x elapsed=0:00:23.82    \nframe=   95 fps=3.9 q=33.0 size=       1KiB time=00:00:01.88 bitrate=   3.0kbits/s speed=0.0771x elapsed=0:00:24.39    \nframe=   99 fps=4.0 q=34.0 size=       1KiB time=00:00:01.96 bitrate=   2.9kbits/s speed=0.0786x elapsed=0:00:24.94    \nframe=  102 fps=4.0 q=34.0 size=       1KiB time=00:00:02.02 bitrate=   2.8kbits/s speed=0.0792x elapsed=0:00:25.49    \nframe=  106 fps=4.1 q=34.0 size=       1KiB time=00:00:02.10 bitrate=   2.7kbits/s speed=0.0807x elapsed=0:00:26.02    \nframe=  111 fps=4.2 q=32.0 size=       1KiB time=00:00:02.20 bitrate=   2.6kbits/s speed=0.0827x elapsed=0:00:26.59    \nframe=  114 fps=4.2 q=34.0 size=       1KiB time=00:00:02.26 bitrate=   2.5kbits/s speed=0.0833x elapsed=0:00:27.11    \nframe=  117 fps=4.2 q=32.0 size=       1KiB time=00:00:02.32 bitrate=   2.5kbits/s speed=0.0839x elapsed=0:00:27.63    \nframe=  121 fps=4.3 q=29.0 size=       1KiB time=00:00:02.38 bitrate=   2.4kbits/s speed=0.0845x elapsed=0:00:28.17    \nframe=  126 fps=4.4 q=35.0 size=       1KiB time=00:00:02.50 bitrate=   2.3kbits/s speed=0.0868x elapsed=0:00:28.78    \nframe=  130 fps=4.4 q=35.0 size=       1KiB time=00:00:02.58 bitrate=   2.2kbits/s speed=0.0879x elapsed=0:00:29.34    \nframe=  134 fps=4.5 q=35.0 size=       1KiB time=00:00:02.66 bitrate=   2.1kbits/s speed=0.0891x elapsed=0:00:29.86    \nframe=  137 fps=4.5 q=30.0 size=       1KiB time=00:00:02.72 bitrate=   2.1kbits/s speed=0.0894x elapsed=0:00:30.43    \nframe=  142 fps=4.6 q=35.0 size=       1KiB time=00:00:02.82 bitrate=   2.0kbits/s speed=0.0911x elapsed=0:00:30.96    \nframe=  147 fps=4.7 q=33.0 size=       1KiB time=00:00:02.90 bitrate=   2.0kbits/s speed=0.0921x elapsed=0:00:31.49    \nframe=  150 fps=4.7 q=35.0 size=    5120KiB time=00:00:02.98 bitrate=14074.8kbits/s speed=0.0928x elapsed=0:00:32.10    \nframe=  157 fps=4.8 q=30.0 size=    5120KiB time=00:00:03.12 bitrate=13443.3kbits/s speed=0.0956x elapsed=0:00:32.65    \nframe=  159 fps=4.8 q=33.0 size=    5120KiB time=00:00:03.16 bitrate=13273.1kbits/s speed=0.0951x elapsed=0:00:33.22    \nframe=  165 fps=4.9 q=33.0 size=    5120KiB time=00:00:03.28 bitrate=12787.5kbits/s speed=0.0972x elapsed=0:00:33.72    \nframe=  169 fps=4.9 q=30.0 size=    5120KiB time=00:00:03.36 bitrate=12483.0kbits/s speed=0.0981x elapsed=0:00:34.26    \nframe=  173 fps=5.0 q=30.0 size=    5120KiB time=00:00:03.44 bitrate=12192.7kbits/s speed=0.0987x elapsed=0:00:34.83    \nframe=  181 fps=5.1 q=33.0 size=    5120KiB time=00:00:03.60 bitrate=11650.8kbits/s speed=0.102x elapsed=0:00:35.35    \nframe=  185 fps=5.2 q=30.0 size=    5120KiB time=00:00:03.68 bitrate=11397.6kbits/s speed=0.103x elapsed=0:00:35.87    \nframe=  187 fps=5.1 q=33.0 size=    5120KiB time=00:00:03.72 bitrate=11275.0kbits/s speed=0.102x elapsed=0:00:36.38    \nframe=  193 fps=5.2 q=25.0 size=    5120KiB time=00:00:03.84 bitrate=10922.7kbits/s speed=0.104x elapsed=0:00:36.94    \nframe=  197 fps=5.3 q=33.0 size=    5120KiB time=00:00:03.92 bitrate=10699.8kbits/s speed=0.105x elapsed=0:00:37.48    \nframe=  201 fps=5.3 q=30.0 size=    5120KiB time=00:00:04.00 bitrate=10485.8kbits/s speed=0.105x elapsed=0:00:38.01    \nframe=  205 fps=5.3 q=30.0 size=    5120KiB time=00:00:04.08 bitrate=10280.2kbits/s speed=0.106x elapsed=0:00:38.54    \nframe=  209 fps=5.3 q=25.0 size=    5120KiB time=00:00:04.16 bitrate=10082.5kbits/s speed=0.106x elapsed=0:00:39.07    \nframe=  213 fps=5.4 q=33.0 size=    5120KiB time=00:00:04.24 bitrate=9892.2kbits/s speed=0.107x elapsed=0:00:39.58    \nframe=  217 fps=5.4 q=30.0 size=    5120KiB time=00:00:04.32 bitrate=9709.0kbits/s speed=0.108x elapsed=0:00:40.10    \nframe=  221 fps=5.4 q=31.0 size=    5120KiB time=00:00:04.40 bitrate=9532.5kbits/s speed=0.108x elapsed=0:00:40.62    \nframe=  225 fps=5.5 q=25.0 size=    5120KiB time=00:00:04.48 bitrate=9362.3kbits/s speed=0.109x elapsed=0:00:41.15    \nframe=  231 fps=5.5 q=34.0 size=    5120KiB time=00:00:04.60 bitrate=9118.1kbits/s speed=0.11x elapsed=0:00:41.70    \nframe=  235 fps=5.6 q=34.0 size=    5120KiB time=00:00:04.68 bitrate=8962.2kbits/s speed=0.111x elapsed=0:00:42.23    \nframe=  239 fps=5.6 q=34.0 size=    5120KiB time=00:00:04.76 bitrate=8811.6kbits/s speed=0.111x elapsed=0:00:42.74    \n[out#0/matroska @ 000002bd02750d40] video:7869KiB audio:0KiB subtitle:0KiB other streams:0KiB global headers:0KiB muxing overhead: 0.025105%\nframe=  250 fps=5.8 q=34.0 Lsize=    7871KiB time=00:00:04.98 bitrate=12948.0kbits/s speed=0.116x elapsed=0:00:43.06    \n",
  "seconds": 43.642422676086426,
  "probe_out": {}
}